<?xml version="1.0" encoding="utf-8"?>
<!-- Generator: Adobe Illustrator 24.3.0, SVG Export Plug-In . SVG Version: 6.00 Build 0)  -->
<svg version="1.1" id="Layer_1" xmlns="http://www.w3.org/2000/svg" xmlns:xlink="http://www.w3.org/1999/xlink" x="0px" y="0px"
	 viewBox="0 0 120 120" enable-background="new 0 0 120 120" xml:space="preserve">
<g>
	<circle fill="#E8EBEC" cx="51.502" cy="82.699" r="14"/>
	<circle fill="#E8EBEC" cx="87.646" cy="61.883" r="12"/>
	<circle fill="#E8EBEC" cx="39.481" cy="42.382" r="20"/>
	<g>
		<path fill="#BDC3D8" d="M53.778,30.133h-12c-7.732,0-14,6.269-14,14v12c0,7.732,6.268,14,14,14h12c7.732,0,14-6.268,14-14v-12
			C67.778,36.402,61.51,30.133,53.778,30.133z"/>
		<path fill="#FFFFFF" d="M49.778,30.133h-8c-7.732,0-14,6.269-14,14v8c0,7.731,6.268,14,14,14h8c7.732,0,14-6.269,14-14v-8
			C63.778,36.402,57.51,30.133,49.778,30.133z"/>
		<path fill="#21365F" d="M53.778,70.883h-12c-8.133,0-14.75-6.617-14.75-14.75v-12c0-8.133,6.617-14.75,14.75-14.75h12
			c8.133,0,14.75,6.617,14.75,14.75v12C68.528,64.266,61.911,70.883,53.778,70.883z M41.778,30.883
			c-7.306,0-13.25,5.944-13.25,13.25v12c0,7.306,5.944,13.25,13.25,13.25h12c7.306,0,13.25-5.944,13.25-13.25v-12
			c0-7.306-5.944-13.25-13.25-13.25H41.778z"/>
		<path fill="#FFFFFF" d="M36.278,45.133c0,2.209,1.791,4,4,4c2.209,0,4-1.791,4-4c0-0.732-0.212-1.41-0.555-2.001h-6.89
			C36.489,43.723,36.278,44.401,36.278,45.133z"/>
		<path fill="#BDC3D8" d="M41.14,43.132c0.087,0.319,0.137,0.653,0.137,1.001c0,2.093-1.613,3.791-3.662,3.966
			c0.708,0.636,1.635,1.034,2.662,1.034c2.209,0,4-1.791,4-4c0-0.732-0.212-1.41-0.555-2.001H41.14z"/>
		<path fill="#21365F" d="M40.278,49.883c-2.619,0-4.75-2.131-4.75-4.75c0-0.829,0.221-1.63,0.656-2.378
			c0.134-0.231,0.381-0.373,0.648-0.373h6.89c0.267,0,0.514,0.142,0.648,0.373c0.436,0.749,0.657,1.549,0.657,2.378
			C45.028,47.752,42.897,49.883,40.278,49.883z M37.292,43.882c-0.175,0.404-0.264,0.823-0.264,1.251c0,1.792,1.458,3.25,3.25,3.25
			c1.792,0,3.25-1.458,3.25-3.25c0-0.428-0.089-0.847-0.264-1.251H37.292z"/>
		<path fill="#FFFFFF" d="M51.834,43.132c-0.344,0.591-0.555,1.269-0.555,2.001c0,2.209,1.791,4,4,4s4-1.791,4-4
			c0-0.732-0.211-1.41-0.555-2.001H51.834z"/>
		<path fill="#BDC3D8" d="M59.279,45.133c0-0.732-0.211-1.41-0.555-2.001h-2.583c0.087,0.319,0.137,0.653,0.137,1.001
			c0,2.093-1.613,3.791-3.662,3.966c0.708,0.636,1.635,1.034,2.662,1.034C57.488,49.133,59.279,47.342,59.279,45.133z"/>
		<path fill="#21365F" d="M55.279,49.883c-2.619,0-4.75-2.131-4.75-4.75c0-0.829,0.221-1.63,0.656-2.378
			c0.134-0.231,0.381-0.373,0.648-0.373h6.89c0.267,0,0.514,0.142,0.648,0.373c0.436,0.749,0.657,1.549,0.657,2.378
			C60.029,47.752,57.898,49.883,55.279,49.883z M52.293,43.882c-0.175,0.404-0.264,0.823-0.264,1.251c0,1.792,1.458,3.25,3.25,3.25
			s3.25-1.458,3.25-3.25c0-0.428-0.089-0.847-0.264-1.251H52.293z"/>
		<path fill="#21365F" d="M55.778,54.884h-18c-0.414,0-0.75-0.336-0.75-0.75c0-0.414,0.336-0.75,0.75-0.75h18
			c0.414,0,0.75,0.336,0.75,0.75C56.528,54.548,56.192,54.884,55.778,54.884z"/>
		<path fill="#FFFFFF" d="M42.778,61.133L42.778,61.133c-2.762,0-5-2.238-5-5v-2h10v2C47.778,58.895,45.539,61.133,42.778,61.133z"
			/>
		<path fill="#BDC3D8" d="M44.778,54.133v2c0,2.235-1.477,4.105-3.5,4.745c0.476,0.151,0.974,0.255,1.5,0.255c2.761,0,5-2.238,5-5
			v-2H44.778z"/>
		<path fill="#21365F" d="M42.778,61.883c-3.171,0-5.75-2.579-5.75-5.75v-2c0-0.414,0.336-0.75,0.75-0.75h10
			c0.414,0,0.75,0.336,0.75,0.75v2C48.528,59.304,45.948,61.883,42.778,61.883z M38.528,54.883v1.25c0,2.344,1.907,4.25,4.25,4.25
			c2.343,0,4.25-1.906,4.25-4.25v-1.25H38.528z"/>
		<path fill="#21365F" d="M44.278,39.882h-8c-0.414,0-0.75-0.336-0.75-0.75s0.336-0.75,0.75-0.75h8c0.414,0,0.75,0.336,0.75,0.75
			S44.692,39.882,44.278,39.882z"/>
		<path fill="#21365F" d="M59.279,39.882h-8c-0.414,0-0.75-0.336-0.75-0.75s0.336-0.75,0.75-0.75h8c0.414,0,0.75,0.336,0.75,0.75
			S59.693,39.882,59.279,39.882z"/>
		<path fill="#BDC3D8" d="M77.78,54.136h-12c-7.732,0-14,6.268-14,14v12c0,7.731,6.268,14,14,14h12c7.732,0,14-6.269,14-14v-12
			C91.78,60.404,85.512,54.136,77.78,54.136z"/>
		<path fill="#FFFFFF" d="M73.78,54.136H65.78c-7.732,0-14,6.268-14,14v7.999c0,7.732,6.268,14,14,14h7.999c7.732,0,14-6.268,14-14
			v-7.999C87.78,60.404,81.512,54.136,73.78,54.136z"/>
		<path fill="#21365F" d="M77.78,94.886h-12c-8.133,0-14.75-6.617-14.75-14.75v-12c0-8.133,6.617-14.75,14.75-14.75h12
			c8.133,0,14.75,6.617,14.75,14.75v12C92.53,88.269,85.914,94.886,77.78,94.886z M65.78,54.886c-7.306,0-13.25,5.944-13.25,13.25
			v12c0,7.306,5.944,13.25,13.25,13.25h12c7.306,0,13.25-5.944,13.25-13.25v-12c0-7.306-5.944-13.25-13.25-13.25H65.78z"/>
		<path fill="#21365F" d="M84.231,64.936c-0.192,0-0.384-0.073-0.53-0.22c-1.181-1.181-2.75-1.831-4.419-1.831
			c-1.67,0-3.239,0.65-4.42,1.831c-0.293,0.293-0.767,0.293-1.06,0c-0.293-0.293-0.293-0.768,0-1.061
			c1.464-1.464,3.41-2.271,5.48-2.271c2.07,0,4.016,0.807,5.48,2.271c0.293,0.293,0.293,0.768,0,1.061
			C84.615,64.863,84.423,64.936,84.231,64.936z"/>
		<path fill="#21365F" d="M69.23,64.936c-0.192,0-0.384-0.073-0.53-0.22c-1.181-1.181-2.75-1.831-4.42-1.831
			c-1.669,0-3.239,0.65-4.419,1.831c-0.293,0.293-0.768,0.293-1.061,0c-0.293-0.293-0.293-0.768,0-1.061
			c1.464-1.464,3.41-2.271,5.48-2.271c2.07,0,4.017,0.807,5.481,2.271c0.293,0.293,0.293,0.768,0,1.061
			C69.613,64.863,69.422,64.936,69.23,64.936z"/>
		<path fill="#FFFFFF" d="M64.28,65.635L64.28,65.635c-1.933,0-3.5,1.567-3.5,3.5l0,0c0,1.933,1.567,3.5,3.5,3.5l0,0
			c1.933,0,3.5-1.567,3.5-3.5l0,0C67.78,67.202,66.213,65.635,64.28,65.635z"/>
		<path fill="#BDC3D8" d="M64.28,65.635c-0.173,0-0.338,0.026-0.504,0.051c0.62,0.632,1.004,1.495,1.004,2.449
			c0,1.761-1.304,3.203-2.996,3.449c0.635,0.647,1.518,1.051,2.496,1.051c1.933,0,3.5-1.567,3.5-3.5S66.213,65.635,64.28,65.635z"/>
		<path fill="#21365F" d="M64.279,73.385c-2.343,0-4.25-1.906-4.25-4.25c0-2.344,1.907-4.25,4.25-4.25c2.343,0,4.25,1.906,4.25,4.25
			C68.529,71.479,66.623,73.385,64.279,73.385z M64.279,66.385c-1.517,0-2.75,1.233-2.75,2.75s1.233,2.75,2.75,2.75
			c1.517,0,2.75-1.233,2.75-2.75S65.796,66.385,64.279,66.385z"/>
		<path fill="#FFFFFF" d="M79.281,65.635L79.281,65.635c-1.933,0-3.5,1.567-3.5,3.5l0,0c0,1.933,1.567,3.5,3.5,3.5l0,0
			c1.933,0,3.5-1.567,3.5-3.5l0,0C82.781,67.202,81.215,65.635,79.281,65.635z"/>
		<path fill="#BDC3D8" d="M79.281,65.635c-0.173,0-0.338,0.026-0.504,0.051c0.62,0.632,1.004,1.495,1.004,2.449
			c0,1.761-1.304,3.203-2.996,3.449c0.635,0.647,1.518,1.051,2.496,1.051c1.933,0,3.5-1.567,3.5-3.5S81.215,65.635,79.281,65.635z"
			/>
		<path fill="#21365F" d="M79.281,73.385c-2.343,0-4.25-1.906-4.25-4.25c0-2.344,1.907-4.25,4.25-4.25c2.343,0,4.25,1.906,4.25,4.25
			C83.531,71.479,81.625,73.385,79.281,73.385z M79.281,66.385c-1.517,0-2.75,1.233-2.75,2.75s1.233,2.75,2.75,2.75
			c1.517,0,2.75-1.233,2.75-2.75S80.798,66.385,79.281,66.385z"/>
		<path fill="#FFFFFF" d="M81.78,77.136c0,5.522-4.477,10-10,10c-5.523,0-10-4.478-10-10H81.78z"/>
		<path fill="#BDC3D8" d="M75.78,77.136c0,4.478-2.943,8.266-6.999,9.54c0.947,0.298,1.955,0.46,3,0.46c5.523,0,10-4.478,10-10
			H75.78z"/>
		<path fill="#21365F" d="M71.78,87.886c-5.928,0-10.75-4.822-10.75-10.75c0-0.414,0.336-0.75,0.75-0.75h20
			c0.414,0,0.75,0.336,0.75,0.75C82.53,83.064,77.708,87.886,71.78,87.886z M62.561,77.886c0.383,4.751,4.371,8.5,9.22,8.5
			c4.848,0,8.837-3.749,9.22-8.5H62.561z"/>
		<path fill="#FFFFFF" d="M65.011,84.481c1.782,1.644,4.154,2.655,6.769,2.655c2.615,0,4.988-1.012,6.769-2.655
			C74.423,81.883,69.138,81.883,65.011,84.481z"/>
		<path fill="#BDC3D8" d="M78.55,84.481c-1.333-0.84-2.789-1.403-4.287-1.7c0.438,0.209,0.87,0.438,1.286,0.7
			c-1.782,1.644-4.154,2.655-6.769,2.655c-0.553,0-1.091-0.055-1.619-0.142c1.381,0.726,2.95,1.142,4.619,1.142
			C74.395,87.136,76.768,86.124,78.55,84.481z"/>
		<path fill="#21365F" d="M71.78,87.886c-2.698,0-5.282-1.014-7.278-2.854c-0.172-0.158-0.26-0.388-0.239-0.62
			c0.021-0.232,0.15-0.442,0.348-0.566c4.354-2.74,9.983-2.74,14.338,0c0.198,0.124,0.326,0.334,0.348,0.566
			c0.021,0.232-0.067,0.462-0.239,0.62C77.063,86.872,74.478,87.886,71.78,87.886z M66.326,84.595
			c1.581,1.161,3.483,1.791,5.454,1.791c1.971,0,3.873-0.63,5.454-1.791C73.826,82.853,69.735,82.853,66.326,84.595z"/>
		<path fill="#21365F" d="M72.163,33.884h-1.385c-0.414,0-0.75-0.336-0.75-0.75c0-0.414,0.336-0.75,0.75-0.75h1.385
			c0.414,0,0.75,0.336,0.75,0.75C72.913,33.548,72.577,33.884,72.163,33.884z"/>
		<path fill="#21365F" d="M76.778,33.884h-1.384c-0.414,0-0.75-0.336-0.75-0.75c0-0.414,0.336-0.75,0.75-0.75h1.384
			c0.414,0,0.75,0.336,0.75,0.75C77.528,33.548,77.193,33.884,76.778,33.884z"/>
		<path fill="#21365F" d="M73.778,36.884c-0.414,0-0.75-0.336-0.75-0.75v-1.385c0-0.414,0.336-0.75,0.75-0.75
			c0.414,0,0.75,0.336,0.75,0.75v1.385C74.528,36.548,74.193,36.884,73.778,36.884z"/>
		<path fill="#21365F" d="M73.778,32.268c-0.414,0-0.75-0.336-0.75-0.75v-1.384c0-0.414,0.336-0.75,0.75-0.75
			c0.414,0,0.75,0.336,0.75,0.75v1.384C74.528,31.932,74.193,32.268,73.778,32.268z"/>
		<path fill="#21365F" d="M87.165,39.884H85.78c-0.414,0-0.75-0.336-0.75-0.75c0-0.414,0.336-0.75,0.75-0.75h1.385
			c0.414,0,0.75,0.336,0.75,0.75C87.915,39.548,87.579,39.884,87.165,39.884z"/>
		<path fill="#21365F" d="M91.78,39.884h-1.384c-0.414,0-0.75-0.336-0.75-0.75c0-0.414,0.336-0.75,0.75-0.75h1.384
			c0.414,0,0.75,0.336,0.75,0.75C92.53,39.548,92.194,39.884,91.78,39.884z"/>
		<path fill="#21365F" d="M88.78,42.884c-0.414,0-0.75-0.336-0.75-0.75v-1.385c0-0.414,0.336-0.75,0.75-0.75s0.75,0.336,0.75,0.75
			v1.385C89.53,42.548,89.194,42.884,88.78,42.884z"/>
		<path fill="#21365F" d="M88.78,38.269c-0.414,0-0.75-0.336-0.75-0.75v-1.385c0-0.414,0.336-0.75,0.75-0.75s0.75,0.336,0.75,0.75
			v1.385C89.53,37.933,89.194,38.269,88.78,38.269z"/>
		<path fill="#21365F" d="M79.164,46.885h-1.384c-0.414,0-0.75-0.336-0.75-0.75c0-0.414,0.336-0.75,0.75-0.75h1.384
			c0.414,0,0.75,0.336,0.75,0.75C79.914,46.549,79.578,46.885,79.164,46.885z"/>
		<path fill="#21365F" d="M83.779,46.885h-1.385c-0.414,0-0.75-0.336-0.75-0.75c0-0.414,0.336-0.75,0.75-0.75h1.385
			c0.414,0,0.75,0.336,0.75,0.75C84.529,46.549,84.194,46.885,83.779,46.885z"/>
		<path fill="#21365F" d="M80.779,49.885c-0.414,0-0.75-0.336-0.75-0.75V47.75c0-0.414,0.336-0.75,0.75-0.75
			c0.414,0,0.75,0.336,0.75,0.75v1.385C81.529,49.549,81.194,49.885,80.779,49.885z"/>
		<path fill="#21365F" d="M80.779,45.27c-0.414,0-0.75-0.336-0.75-0.75v-1.385c0-0.414,0.336-0.75,0.75-0.75
			c0.414,0,0.75,0.336,0.75,0.75v1.385C81.529,44.934,81.194,45.27,80.779,45.27z"/>
		<path fill="#21365F" d="M42.16,85.889h-1.385c-0.414,0-0.75-0.336-0.75-0.75c0-0.414,0.336-0.75,0.75-0.75h1.385
			c0.414,0,0.75,0.336,0.75,0.75C42.91,85.553,42.574,85.889,42.16,85.889z"/>
		<path fill="#21365F" d="M46.776,85.889h-1.384c-0.414,0-0.75-0.336-0.75-0.75c0-0.414,0.336-0.75,0.75-0.75h1.384
			c0.414,0,0.75,0.336,0.75,0.75C47.526,85.553,47.19,85.889,46.776,85.889z"/>
		<path fill="#21365F" d="M43.776,88.889c-0.414,0-0.75-0.336-0.75-0.75v-1.385c0-0.414,0.336-0.75,0.75-0.75
			c0.414,0,0.75,0.336,0.75,0.75v1.385C44.526,88.553,44.19,88.889,43.776,88.889z"/>
		<path fill="#21365F" d="M43.776,84.274c-0.414,0-0.75-0.336-0.75-0.75v-1.385c0-0.414,0.336-0.75,0.75-0.75
			c0.414,0,0.75,0.336,0.75,0.75v1.385C44.526,83.938,44.19,84.274,43.776,84.274z"/>
		<path fill="#21365F" d="M31.159,79.888h-1.384c-0.414,0-0.75-0.336-0.75-0.75c0-0.414,0.336-0.75,0.75-0.75h1.384
			c0.414,0,0.75,0.336,0.75,0.75C31.909,79.552,31.573,79.888,31.159,79.888z"/>
		<path fill="#21365F" d="M35.775,79.888H34.39c-0.414,0-0.75-0.336-0.75-0.75c0-0.414,0.336-0.75,0.75-0.75h1.385
			c0.414,0,0.75,0.336,0.75,0.75C36.525,79.552,36.189,79.888,35.775,79.888z"/>
		<path fill="#21365F" d="M32.775,82.888c-0.414,0-0.75-0.336-0.75-0.75v-1.384c0-0.414,0.336-0.75,0.75-0.75
			c0.414,0,0.75,0.336,0.75,0.75v1.384C33.525,82.552,33.189,82.888,32.775,82.888z"/>
		<path fill="#21365F" d="M32.775,78.273c-0.414,0-0.75-0.336-0.75-0.75v-1.385c0-0.414,0.336-0.75,0.75-0.75
			c0.414,0,0.75,0.336,0.75,0.75v1.385C33.525,77.937,33.189,78.273,32.775,78.273z"/>
	</g>
</g>
</svg>
