<svg xmlns="http://www.w3.org/2000/svg" xmlns:xlink="http://www.w3.org/1999/xlink" version="1.1" preserveAspectRatio="none" x="0px" y="0px" viewBox="0 0 100 125"><defs><g id="a"><path fill="#000000" stroke="none" d=" M 82.5 52.5 Q 83.5 51.45 83.5 50 83.5 48.55 82.5 47.55 81.45 46.5 80 46.5 L 20 46.5 Q 18.55 46.5 17.55 47.55 16.5 48.55 16.5 50 16.5 51.45 17.55 52.5 18.55 53.5 20 53.5 L 80 53.5 Q 81.45 53.5 82.5 52.5 M 82.5 72.5 Q 83.5 71.45 83.5 70 83.5 68.55 82.5 67.55 81.45 66.5 80 66.5 L 20 66.5 Q 18.55 66.5 17.55 67.55 16.5 68.55 16.5 70 16.5 71.45 17.55 72.5 18.55 73.5 20 73.5 L 80 73.5 Q 81.45 73.5 82.5 72.5 M 82.5 32.5 Q 83.5 31.45 83.5 30 83.5 28.55 82.5 27.55 81.45 26.5 80 26.5 L 20 26.5 Q 18.55 26.5 17.55 27.55 16.5 28.55 16.5 30 16.5 31.45 17.55 32.5 18.55 33.5 20 33.5 L 80 33.5 Q 81.45 33.5 82.5 32.5 Z"/></g></defs><g transform="matrix( 1, 0, 0, 1, 0,0) "><use xlink:href="#a"/></g><text x="0" y="115" fill="#000000" font-size="5px" font-weight="bold" font-family="'Helvetica Neue', Helvetica, Arial-Unicode, Arial, Sans-serif">Created by Richard Kunák</text><text x="0" y="120" fill="#000000" font-size="5px" font-weight="bold" font-family="'Helvetica Neue', Helvetica, Arial-Unicode, Arial, Sans-serif">from the Noun Project</text></svg>